<mxfile host="drawio-plugin" modified="2022-11-13T00:35:00.215Z" agent="5.0 (Windows NT 6.2; Win64; x64) AppleWebKit/537.36 (KHTML, like Gecko) Chrome/98.0.4758.102 Safari/537.36" etag="VCyywiGRwMV4VedAzFKh" version="15.5.4" type="embed" pages="3"><diagram id="WGN4KWLR9Hr2ETXDH9Bs" name="Main branches"><mxGraphModel dx="440" dy="735" grid="1" gridSize="10" guides="1" tooltips="1" connect="1" arrows="1" fold="1" page="1" pageScale="1" pageWidth="850" pageHeight="1100" math="0" shadow="0"><root><mxCell id="0"/><mxCell id="1" parent="0"/><mxCell id="2" value="ModelEvent" style="swimlane;fontStyle=1;align=center;verticalAlign=top;childLayout=stackLayout;horizontal=1;startSize=26;horizontalStack=0;resizeParent=1;resizeParentMax=0;resizeLast=0;collapsible=1;marginBottom=0;" parent="1" vertex="1"><mxGeometry y="180" width="270" height="78" as="geometry"/></mxCell><mxCell id="3" value="" style="line;strokeWidth=1;fillColor=none;align=left;verticalAlign=middle;spacingTop=-1;spacingLeft=3;spacingRight=3;rotatable=0;labelPosition=right;points=[];portConstraint=eastwest;" parent="2" vertex="1"><mxGeometry y="26" width="270" height="2" as="geometry"/></mxCell><mxCell id="5" value="" style="line;strokeWidth=1;fillColor=none;align=left;verticalAlign=middle;spacingTop=-1;spacingLeft=3;spacingRight=3;rotatable=0;labelPosition=right;points=[];portConstraint=eastwest;" parent="2" vertex="1"><mxGeometry y="28" width="270" height="8" as="geometry"/></mxCell><mxCell id="6" value="&lt;span&gt;+ ModelEvent(ScrabbleModel): void&lt;br&gt;+ getModel(): ScrabbleModel&lt;br&gt;&lt;/span&gt;" style="text;html=1;strokeColor=none;fillColor=none;align=left;verticalAlign=middle;whiteSpace=wrap;rounded=0;" parent="2" vertex="1"><mxGeometry y="36" width="270" height="42" as="geometry"/></mxCell><mxCell id="7" value="" style="endArrow=block;endSize=16;endFill=0;html=1;rounded=0;" parent="1" source="2" target="23" edge="1"><mxGeometry width="160" relative="1" as="geometry"><mxPoint x="644.5" y="2" as="sourcePoint"/><mxPoint x="370" y="150" as="targetPoint"/></mxGeometry></mxCell><mxCell id="8" value="AWTEvent" style="swimlane;fontStyle=1;align=center;verticalAlign=top;childLayout=stackLayout;horizontal=1;startSize=26;horizontalStack=0;resizeParent=1;resizeParentMax=0;resizeLast=0;collapsible=1;marginBottom=0;" parent="1" vertex="1"><mxGeometry x="290" y="20" width="270" height="62" as="geometry"/></mxCell><mxCell id="9" value="" style="line;strokeWidth=1;fillColor=none;align=left;verticalAlign=middle;spacingTop=-1;spacingLeft=3;spacingRight=3;rotatable=0;labelPosition=right;points=[];portConstraint=eastwest;" parent="8" vertex="1"><mxGeometry y="26" width="270" height="2" as="geometry"/></mxCell><mxCell id="10" value="" style="line;strokeWidth=1;fillColor=none;align=left;verticalAlign=middle;spacingTop=-1;spacingLeft=3;spacingRight=3;rotatable=0;labelPosition=right;points=[];portConstraint=eastwest;" parent="8" vertex="1"><mxGeometry y="28" width="270" height="8" as="geometry"/></mxCell><mxCell id="36" value="+ getSource(): Object" style="text;strokeColor=none;fillColor=none;align=left;verticalAlign=top;spacingLeft=4;spacingRight=4;overflow=hidden;rotatable=0;points=[[0,0.5],[1,0.5]];portConstraint=eastwest;" parent="8" vertex="1"><mxGeometry y="36" width="270" height="26" as="geometry"/></mxCell><mxCell id="11" value="ControllerEvent" style="swimlane;fontStyle=1;align=center;verticalAlign=top;childLayout=stackLayout;horizontal=1;startSize=26;horizontalStack=0;resizeParent=1;resizeParentMax=0;resizeLast=0;collapsible=1;marginBottom=0;" parent="1" vertex="1"><mxGeometry x="570" y="180" width="270" height="78" as="geometry"/></mxCell><mxCell id="12" value="" style="line;strokeWidth=1;fillColor=none;align=left;verticalAlign=middle;spacingTop=-1;spacingLeft=3;spacingRight=3;rotatable=0;labelPosition=right;points=[];portConstraint=eastwest;" parent="11" vertex="1"><mxGeometry y="26" width="270" height="2" as="geometry"/></mxCell><mxCell id="14" value="" style="line;strokeWidth=1;fillColor=none;align=left;verticalAlign=middle;spacingTop=-1;spacingLeft=3;spacingRight=3;rotatable=0;labelPosition=right;points=[];portConstraint=eastwest;" parent="11" vertex="1"><mxGeometry y="28" width="270" height="8" as="geometry"/></mxCell><mxCell id="15" value="&lt;span&gt;+ ControllerEvent(SController): void&lt;br&gt;+ getController(): SController&lt;br&gt;&lt;/span&gt;" style="text;html=1;strokeColor=none;fillColor=none;align=left;verticalAlign=middle;whiteSpace=wrap;rounded=0;" parent="11" vertex="1"><mxGeometry y="36" width="270" height="42" as="geometry"/></mxCell><mxCell id="16" value="" style="endArrow=block;endSize=16;endFill=0;html=1;rounded=0;" parent="1" source="11" target="23" edge="1"><mxGeometry width="160" relative="1" as="geometry"><mxPoint x="308.52941176470586" y="220" as="sourcePoint"/><mxPoint x="460" y="150" as="targetPoint"/></mxGeometry></mxCell><mxCell id="23" value="ScrabbleEvent" style="swimlane;fontStyle=1;align=center;verticalAlign=top;childLayout=stackLayout;horizontal=1;startSize=26;horizontalStack=0;resizeParent=1;resizeParentMax=0;resizeLast=0;collapsible=1;marginBottom=0;" parent="1" vertex="1"><mxGeometry x="290" y="110" width="270" height="28" as="geometry"/></mxCell><mxCell id="24" value="" style="line;strokeWidth=1;fillColor=none;align=left;verticalAlign=middle;spacingTop=-1;spacingLeft=3;spacingRight=3;rotatable=0;labelPosition=right;points=[];portConstraint=eastwest;" parent="23" vertex="1"><mxGeometry y="26" width="270" height="2" as="geometry"/></mxCell><mxCell id="26" value="" style="endArrow=block;endSize=16;endFill=0;html=1;rounded=0;" parent="1" source="23" target="8" edge="1"><mxGeometry width="160" relative="1" as="geometry"><mxPoint x="294.2105263157896" y="220" as="sourcePoint"/><mxPoint x="393.68421052631584" y="136" as="targetPoint"/></mxGeometry></mxCell><mxCell id="27" value="For now, only purpose is to differentiate between our defined events and Java events. May not be used much." style="shape=note;whiteSpace=wrap;html=1;backgroundOutline=1;darkOpacity=0.05;size=15;" parent="1" vertex="1"><mxGeometry x="615" y="40" width="180" height="74" as="geometry"/></mxCell><mxCell id="28" value="" style="endArrow=none;dashed=1;html=1;dashPattern=1 3;strokeWidth=2;rounded=0;" parent="1" source="23" target="27" edge="1"><mxGeometry width="50" height="50" relative="1" as="geometry"><mxPoint x="430" y="180" as="sourcePoint"/><mxPoint x="480" y="130" as="targetPoint"/></mxGeometry></mxCell></root></mxGraphModel></diagram><diagram id="wWD442pLcZtegupS51Yr" name="Model Events"><mxGraphModel dx="440" dy="735" grid="1" gridSize="10" guides="1" tooltips="1" connect="1" arrows="1" fold="1" page="1" pageScale="1" pageWidth="850" pageHeight="1100" math="0" shadow="0"><root><mxCell id="rmU-ihcvBx1kRy9QWOGi-0"/><mxCell id="rmU-ihcvBx1kRy9QWOGi-1" parent="rmU-ihcvBx1kRy9QWOGi-0"/><mxCell id="xy1TG2DvqyM4UH9MY5YM-0" value="ModelEvent" style="swimlane;fontStyle=1;align=center;verticalAlign=top;childLayout=stackLayout;horizontal=1;startSize=26;horizontalStack=0;resizeParent=1;resizeParentMax=0;resizeLast=0;collapsible=1;marginBottom=0;" parent="rmU-ihcvBx1kRy9QWOGi-1" vertex="1"><mxGeometry x="290" y="511" width="270" height="78" as="geometry"/></mxCell><mxCell id="xy1TG2DvqyM4UH9MY5YM-1" value="" style="line;strokeWidth=1;fillColor=none;align=left;verticalAlign=middle;spacingTop=-1;spacingLeft=3;spacingRight=3;rotatable=0;labelPosition=right;points=[];portConstraint=eastwest;" parent="xy1TG2DvqyM4UH9MY5YM-0" vertex="1"><mxGeometry y="26" width="270" height="2" as="geometry"/></mxCell><mxCell id="xy1TG2DvqyM4UH9MY5YM-2" value="" style="line;strokeWidth=1;fillColor=none;align=left;verticalAlign=middle;spacingTop=-1;spacingLeft=3;spacingRight=3;rotatable=0;labelPosition=right;points=[];portConstraint=eastwest;" parent="xy1TG2DvqyM4UH9MY5YM-0" vertex="1"><mxGeometry y="28" width="270" height="8" as="geometry"/></mxCell><mxCell id="xy1TG2DvqyM4UH9MY5YM-3" value="&lt;span&gt;+ ModelEvent(ScrabbleModel): void&lt;br&gt;+ getModel(): ScrabbleModel&lt;br&gt;&lt;/span&gt;" style="text;html=1;strokeColor=none;fillColor=none;align=left;verticalAlign=middle;whiteSpace=wrap;rounded=0;" parent="xy1TG2DvqyM4UH9MY5YM-0" vertex="1"><mxGeometry y="36" width="270" height="42" as="geometry"/></mxCell><mxCell id="xy1TG2DvqyM4UH9MY5YM-4" value="HandChangeEvent" style="swimlane;fontStyle=1;align=center;verticalAlign=top;childLayout=stackLayout;horizontal=1;startSize=26;horizontalStack=0;resizeParent=1;resizeParentMax=0;resizeLast=0;collapsible=1;marginBottom=0;" parent="rmU-ihcvBx1kRy9QWOGi-1" vertex="1"><mxGeometry x="40" y="760" width="270" height="60" as="geometry"/></mxCell><mxCell id="xy1TG2DvqyM4UH9MY5YM-5" value="" style="line;strokeWidth=1;fillColor=none;align=left;verticalAlign=middle;spacingTop=-1;spacingLeft=3;spacingRight=3;rotatable=0;labelPosition=right;points=[];portConstraint=eastwest;" parent="xy1TG2DvqyM4UH9MY5YM-4" vertex="1"><mxGeometry y="26" width="270" height="2" as="geometry"/></mxCell><mxCell id="xy1TG2DvqyM4UH9MY5YM-6" value="" style="line;strokeWidth=1;fillColor=none;align=left;verticalAlign=middle;spacingTop=-1;spacingLeft=3;spacingRight=3;rotatable=0;labelPosition=right;points=[];portConstraint=eastwest;" parent="xy1TG2DvqyM4UH9MY5YM-4" vertex="1"><mxGeometry y="28" width="270" height="8" as="geometry"/></mxCell><mxCell id="xy1TG2DvqyM4UH9MY5YM-7" value="&lt;span&gt;+ HandChangeEvent(ScrabbleModel): void&lt;br&gt;&lt;/span&gt;" style="text;html=1;strokeColor=none;fillColor=none;align=left;verticalAlign=middle;whiteSpace=wrap;rounded=0;" parent="xy1TG2DvqyM4UH9MY5YM-4" vertex="1"><mxGeometry y="36" width="270" height="24" as="geometry"/></mxCell><mxCell id="qcHbM8w4NyvxGHL3y4oX-0" value="" style="endArrow=block;endSize=16;endFill=0;html=1;rounded=0;" parent="rmU-ihcvBx1kRy9QWOGi-1" source="xy1TG2DvqyM4UH9MY5YM-4" target="xy1TG2DvqyM4UH9MY5YM-0" edge="1"><mxGeometry width="160" relative="1" as="geometry"><mxPoint x="135" y="290" as="sourcePoint"/><mxPoint x="135" y="258" as="targetPoint"/></mxGeometry></mxCell><mxCell id="z9kJZAVJQiG7ItTawhwo-0" value="NewPlayerHandEvent" style="swimlane;fontStyle=1;align=center;verticalAlign=top;childLayout=stackLayout;horizontal=1;startSize=26;horizontalStack=0;resizeParent=1;resizeParentMax=0;resizeLast=0;collapsible=1;marginBottom=0;" parent="rmU-ihcvBx1kRy9QWOGi-1" vertex="1"><mxGeometry x="220" y="860" width="270" height="78" as="geometry"/></mxCell><mxCell id="z9kJZAVJQiG7ItTawhwo-2" value="" style="line;strokeWidth=1;fillColor=none;align=left;verticalAlign=middle;spacingTop=-1;spacingLeft=3;spacingRight=3;rotatable=0;labelPosition=right;points=[];portConstraint=eastwest;" parent="z9kJZAVJQiG7ItTawhwo-0" vertex="1"><mxGeometry y="26" width="270" height="8" as="geometry"/></mxCell><mxCell id="z9kJZAVJQiG7ItTawhwo-1" value="" style="line;strokeWidth=1;fillColor=none;align=left;verticalAlign=middle;spacingTop=-1;spacingLeft=3;spacingRight=3;rotatable=0;labelPosition=right;points=[];portConstraint=eastwest;" parent="z9kJZAVJQiG7ItTawhwo-0" vertex="1"><mxGeometry y="34" width="270" height="2" as="geometry"/></mxCell><mxCell id="z9kJZAVJQiG7ItTawhwo-3" value="&lt;span&gt;+ NewPlayerHandEvent(ScrabbleModel): void&lt;br&gt;+ getHand(): Hand&lt;br&gt;&lt;/span&gt;" style="text;html=1;strokeColor=none;fillColor=none;align=left;verticalAlign=middle;whiteSpace=wrap;rounded=0;" parent="z9kJZAVJQiG7ItTawhwo-0" vertex="1"><mxGeometry y="36" width="270" height="42" as="geometry"/></mxCell><mxCell id="z9kJZAVJQiG7ItTawhwo-4" value="TileSelectEvent" style="swimlane;fontStyle=1;align=center;verticalAlign=top;childLayout=stackLayout;horizontal=1;startSize=26;horizontalStack=0;resizeParent=1;resizeParentMax=0;resizeLast=0;collapsible=1;marginBottom=0;" parent="rmU-ihcvBx1kRy9QWOGi-1" vertex="1"><mxGeometry x="10" y="950" width="330" height="132" as="geometry"/></mxCell><mxCell id="z9kJZAVJQiG7ItTawhwo-5" value="" style="line;strokeWidth=1;fillColor=none;align=left;verticalAlign=middle;spacingTop=-1;spacingLeft=3;spacingRight=3;rotatable=0;labelPosition=right;points=[];portConstraint=eastwest;" parent="z9kJZAVJQiG7ItTawhwo-4" vertex="1"><mxGeometry y="26" width="330" height="2" as="geometry"/></mxCell><mxCell id="z9kJZAVJQiG7ItTawhwo-8" value="+ selected: boolean&#10;+ tile: Tile" style="text;strokeColor=none;fillColor=none;align=left;verticalAlign=top;spacingLeft=4;spacingRight=4;overflow=hidden;rotatable=0;points=[[0,0.5],[1,0.5]];portConstraint=eastwest;" parent="z9kJZAVJQiG7ItTawhwo-4" vertex="1"><mxGeometry y="28" width="330" height="32" as="geometry"/></mxCell><mxCell id="z9kJZAVJQiG7ItTawhwo-6" value="" style="line;strokeWidth=1;fillColor=none;align=left;verticalAlign=middle;spacingTop=-1;spacingLeft=3;spacingRight=3;rotatable=0;labelPosition=right;points=[];portConstraint=eastwest;" parent="z9kJZAVJQiG7ItTawhwo-4" vertex="1"><mxGeometry y="60" width="330" height="8" as="geometry"/></mxCell><mxCell id="z9kJZAVJQiG7ItTawhwo-7" value="&lt;span&gt;+ NewPlayerHandEvent(ScrabbleModel, Tile, selected): void&lt;br&gt;+ getTile(): Tile&lt;br&gt;+ getSelected(): boolean&lt;br&gt;&lt;/span&gt;" style="text;html=1;strokeColor=none;fillColor=none;align=left;verticalAlign=middle;whiteSpace=wrap;rounded=0;" parent="z9kJZAVJQiG7ItTawhwo-4" vertex="1"><mxGeometry y="68" width="330" height="64" as="geometry"/></mxCell><mxCell id="z9kJZAVJQiG7ItTawhwo-9" value="" style="endArrow=block;endSize=16;endFill=0;html=1;rounded=0;" parent="rmU-ihcvBx1kRy9QWOGi-1" source="z9kJZAVJQiG7ItTawhwo-4" target="xy1TG2DvqyM4UH9MY5YM-4" edge="1"><mxGeometry width="160" relative="1" as="geometry"><mxPoint x="220.5450236966825" y="800" as="sourcePoint"/><mxPoint x="388.79146919431287" y="658" as="targetPoint"/></mxGeometry></mxCell><mxCell id="z9kJZAVJQiG7ItTawhwo-10" value="" style="endArrow=block;endSize=16;endFill=0;html=1;rounded=0;" parent="rmU-ihcvBx1kRy9QWOGi-1" source="z9kJZAVJQiG7ItTawhwo-0" target="xy1TG2DvqyM4UH9MY5YM-4" edge="1"><mxGeometry width="160" relative="1" as="geometry"><mxPoint x="230.5450236966825" y="810" as="sourcePoint"/><mxPoint x="398.79146919431287" y="668" as="targetPoint"/></mxGeometry></mxCell><mxCell id="xiCb6o9OBhhiRX8M3Lgq-0" value="BoardPlaceEvent" style="swimlane;fontStyle=1;align=center;verticalAlign=top;childLayout=stackLayout;horizontal=1;startSize=26;horizontalStack=0;resizeParent=1;resizeParentMax=0;resizeLast=0;collapsible=1;marginBottom=0;" vertex="1" parent="rmU-ihcvBx1kRy9QWOGi-1"><mxGeometry x="530" y="760" width="270" height="216" as="geometry"/></mxCell><mxCell id="xiCb6o9OBhhiRX8M3Lgq-1" value="" style="line;strokeWidth=1;fillColor=none;align=left;verticalAlign=middle;spacingTop=-1;spacingLeft=3;spacingRight=3;rotatable=0;labelPosition=right;points=[];portConstraint=eastwest;" vertex="1" parent="xiCb6o9OBhhiRX8M3Lgq-0"><mxGeometry y="26" width="270" height="2" as="geometry"/></mxCell><mxCell id="xiCb6o9OBhhiRX8M3Lgq-5" value="- placedTiles: List&lt;Tile&gt;&#10;" style="text;strokeColor=none;fillColor=none;align=left;verticalAlign=top;spacingLeft=4;spacingRight=4;overflow=hidden;rotatable=0;points=[[0,0.5],[1,0.5]];portConstraint=eastwest;" vertex="1" parent="xiCb6o9OBhhiRX8M3Lgq-0"><mxGeometry y="28" width="270" height="26" as="geometry"/></mxCell><mxCell id="xiCb6o9OBhhiRX8M3Lgq-6" value="- wordOrigin: Point" style="text;strokeColor=none;fillColor=none;align=left;verticalAlign=top;spacingLeft=4;spacingRight=4;overflow=hidden;rotatable=0;points=[[0,0.5],[1,0.5]];portConstraint=eastwest;" vertex="1" parent="xiCb6o9OBhhiRX8M3Lgq-0"><mxGeometry y="54" width="270" height="26" as="geometry"/></mxCell><mxCell id="xiCb6o9OBhhiRX8M3Lgq-7" value="- direction: Board.Direction" style="text;strokeColor=none;fillColor=none;align=left;verticalAlign=top;spacingLeft=4;spacingRight=4;overflow=hidden;rotatable=0;points=[[0,0.5],[1,0.5]];portConstraint=eastwest;" vertex="1" parent="xiCb6o9OBhhiRX8M3Lgq-0"><mxGeometry y="80" width="270" height="26" as="geometry"/></mxCell><mxCell id="xiCb6o9OBhhiRX8M3Lgq-2" value="" style="line;strokeWidth=1;fillColor=none;align=left;verticalAlign=middle;spacingTop=-1;spacingLeft=3;spacingRight=3;rotatable=0;labelPosition=right;points=[];portConstraint=eastwest;" vertex="1" parent="xiCb6o9OBhhiRX8M3Lgq-0"><mxGeometry y="106" width="270" height="8" as="geometry"/></mxCell><mxCell id="xiCb6o9OBhhiRX8M3Lgq-3" value="&lt;span&gt;+ BoardPlaceEvent(ScrabbleModel): void&lt;br&gt;&lt;/span&gt;" style="text;html=1;strokeColor=none;fillColor=none;align=left;verticalAlign=middle;whiteSpace=wrap;rounded=0;" vertex="1" parent="xiCb6o9OBhhiRX8M3Lgq-0"><mxGeometry y="114" width="270" height="24" as="geometry"/></mxCell><mxCell id="xiCb6o9OBhhiRX8M3Lgq-8" value="+ getPlaceTiles: List&lt;Tile&gt;&#10;" style="text;strokeColor=none;fillColor=none;align=left;verticalAlign=top;spacingLeft=4;spacingRight=4;overflow=hidden;rotatable=0;points=[[0,0.5],[1,0.5]];portConstraint=eastwest;" vertex="1" parent="xiCb6o9OBhhiRX8M3Lgq-0"><mxGeometry y="138" width="270" height="26" as="geometry"/></mxCell><mxCell id="xiCb6o9OBhhiRX8M3Lgq-9" value="+ getWordOrigin: Point" style="text;strokeColor=none;fillColor=none;align=left;verticalAlign=top;spacingLeft=4;spacingRight=4;overflow=hidden;rotatable=0;points=[[0,0.5],[1,0.5]];portConstraint=eastwest;" vertex="1" parent="xiCb6o9OBhhiRX8M3Lgq-0"><mxGeometry y="164" width="270" height="26" as="geometry"/></mxCell><mxCell id="xiCb6o9OBhhiRX8M3Lgq-10" value="+ getDirection: Board.Direction" style="text;strokeColor=none;fillColor=none;align=left;verticalAlign=top;spacingLeft=4;spacingRight=4;overflow=hidden;rotatable=0;points=[[0,0.5],[1,0.5]];portConstraint=eastwest;" vertex="1" parent="xiCb6o9OBhhiRX8M3Lgq-0"><mxGeometry y="190" width="270" height="26" as="geometry"/></mxCell><mxCell id="xiCb6o9OBhhiRX8M3Lgq-4" value="" style="endArrow=block;endSize=16;endFill=0;html=1;rounded=0;" edge="1" parent="rmU-ihcvBx1kRy9QWOGi-1" source="xiCb6o9OBhhiRX8M3Lgq-0" target="xy1TG2DvqyM4UH9MY5YM-0"><mxGeometry width="160" relative="1" as="geometry"><mxPoint x="216.25" y="770" as="sourcePoint"/><mxPoint x="394.375" y="599" as="targetPoint"/></mxGeometry></mxCell></root></mxGraphModel></diagram><diagram id="HzvmTfayR-zwZSbMXwx_" name="Controller Events"><mxGraphModel dx="440" dy="735" grid="1" gridSize="10" guides="1" tooltips="1" connect="1" arrows="1" fold="1" page="1" pageScale="1" pageWidth="850" pageHeight="1100" math="0" shadow="0"><root><mxCell id="gsrCCS2JsrCdOVJIwb3w-0"/><mxCell id="gsrCCS2JsrCdOVJIwb3w-1" parent="gsrCCS2JsrCdOVJIwb3w-0"/><mxCell id="ZOteYosIAGASoXmJGCkW-0" value="ControllerEvent" style="swimlane;fontStyle=1;align=center;verticalAlign=top;childLayout=stackLayout;horizontal=1;startSize=26;horizontalStack=0;resizeParent=1;resizeParentMax=0;resizeLast=0;collapsible=1;marginBottom=0;" parent="gsrCCS2JsrCdOVJIwb3w-1" vertex="1"><mxGeometry x="330" y="60" width="270" height="78" as="geometry"/></mxCell><mxCell id="ZOteYosIAGASoXmJGCkW-1" value="" style="line;strokeWidth=1;fillColor=none;align=left;verticalAlign=middle;spacingTop=-1;spacingLeft=3;spacingRight=3;rotatable=0;labelPosition=right;points=[];portConstraint=eastwest;" parent="ZOteYosIAGASoXmJGCkW-0" vertex="1"><mxGeometry y="26" width="270" height="2" as="geometry"/></mxCell><mxCell id="ZOteYosIAGASoXmJGCkW-2" value="" style="line;strokeWidth=1;fillColor=none;align=left;verticalAlign=middle;spacingTop=-1;spacingLeft=3;spacingRight=3;rotatable=0;labelPosition=right;points=[];portConstraint=eastwest;" parent="ZOteYosIAGASoXmJGCkW-0" vertex="1"><mxGeometry y="28" width="270" height="8" as="geometry"/></mxCell><mxCell id="ZOteYosIAGASoXmJGCkW-3" value="&lt;span&gt;+ ControllerEvent(SController): void&lt;br&gt;+ getController(): SController&lt;br&gt;&lt;/span&gt;" style="text;html=1;strokeColor=none;fillColor=none;align=left;verticalAlign=middle;whiteSpace=wrap;rounded=0;" parent="ZOteYosIAGASoXmJGCkW-0" vertex="1"><mxGeometry y="36" width="270" height="42" as="geometry"/></mxCell><mxCell id="ZTk6FYe9bm7CWPDNUrCZ-0" value="TileClickEvent" style="swimlane;fontStyle=1;align=center;verticalAlign=top;childLayout=stackLayout;horizontal=1;startSize=26;horizontalStack=0;resizeParent=1;resizeParentMax=0;resizeLast=0;collapsible=1;marginBottom=0;" parent="gsrCCS2JsrCdOVJIwb3w-1" vertex="1"><mxGeometry x="330" y="180" width="270" height="78" as="geometry"/></mxCell><mxCell id="ZTk6FYe9bm7CWPDNUrCZ-1" value="" style="line;strokeWidth=1;fillColor=none;align=left;verticalAlign=middle;spacingTop=-1;spacingLeft=3;spacingRight=3;rotatable=0;labelPosition=right;points=[];portConstraint=eastwest;" parent="ZTk6FYe9bm7CWPDNUrCZ-0" vertex="1"><mxGeometry y="26" width="270" height="2" as="geometry"/></mxCell><mxCell id="ZTk6FYe9bm7CWPDNUrCZ-2" value="" style="line;strokeWidth=1;fillColor=none;align=left;verticalAlign=middle;spacingTop=-1;spacingLeft=3;spacingRight=3;rotatable=0;labelPosition=right;points=[];portConstraint=eastwest;" parent="ZTk6FYe9bm7CWPDNUrCZ-0" vertex="1"><mxGeometry y="28" width="270" height="8" as="geometry"/></mxCell><mxCell id="ZTk6FYe9bm7CWPDNUrCZ-3" value="&lt;span&gt;+ selectEvent(): void&lt;br&gt;+ getTile(): Tile&lt;br&gt;&lt;/span&gt;" style="text;html=1;strokeColor=none;fillColor=none;align=left;verticalAlign=middle;whiteSpace=wrap;rounded=0;" parent="ZTk6FYe9bm7CWPDNUrCZ-0" vertex="1"><mxGeometry y="36" width="270" height="42" as="geometry"/></mxCell><mxCell id="ZTk6FYe9bm7CWPDNUrCZ-4" value="" style="endArrow=block;endSize=16;endFill=0;html=1;rounded=0;" parent="gsrCCS2JsrCdOVJIwb3w-1" source="ZTk6FYe9bm7CWPDNUrCZ-0" target="ZOteYosIAGASoXmJGCkW-0" edge="1"><mxGeometry width="160" relative="1" as="geometry"><mxPoint x="380" y="250" as="sourcePoint"/><mxPoint x="540" y="250" as="targetPoint"/></mxGeometry></mxCell></root></mxGraphModel></diagram></mxfile>